<?xml version="1.0" encoding="UTF-8"?>
<!DOCTYPE svg PUBLIC "-//W3C//DTD SVG 1.1//EN" "http://www.w3.org/Graphics/SVG/1.1/DTD/svg11.dtd">
<!-- Creator: CorelDRAW 2018 (64-Bit Evaluation Version) -->
<svg xmlns="http://www.w3.org/2000/svg" xml:space="preserve" width="999px" height="498px" version="1.1" style="shape-rendering:geometricPrecision; text-rendering:geometricPrecision; image-rendering:optimizeQuality; fill-rule:evenodd; clip-rule:evenodd"
viewBox="0 0 252.07 125.6"
 xmlns:xlink="http://www.w3.org/1999/xlink">
 <defs>
  <style type="text/css">
   <![CDATA[
    .fil0 {fill:white;fill-rule:nonzero}
   ]]>
  </style>
    <clipPath id="id0">
     <path d="M0 0l252.07 0 0 125.6 -252.07 0 0 -125.6z"/>
    </clipPath>
 </defs>
 <g id="Layer_x0020_1">
  <metadata id="CorelCorpID_0Corel-Layer"/>
  <g id="_1501586546064">
   <g style="clip-path:url(#id0)">
    <image x="0" y="0" width="252.07" height="125.6" xlink:href="Design Adda Logo White_Images\Design Adda Logo White_ImgID1.png"/>
   </g>
  </g>
  <g id="_1501586550832">
   <path class="fil0" d="M8.54 8.42l13.59 0c6.66,0 11.59,1.28 14.8,3.84 4.78,3.8 7.16,9.74 7.16,17.83 0,8.39 -2.08,14.45 -6.25,18.2 -1.89,1.69 -4.01,2.87 -6.35,3.57 -2.34,0.7 -5.45,1.04 -9.33,1.04l-14.66 0 4.74 -3.66 0 -36.77 -3.7 -4.05zm10.51 2.98l0 38.81 1.85 0 0 -36.53c1.19,-0.2 2.29,-0.29 3.28,-0.29 1.89,0 3.38,0.19 4.48,0.58 1.1,0.38 2.2,1.07 3.3,2.09 -2.44,-1.17 -5.06,-1.75 -7.86,-1.75 -0.6,0 -1.38,0.06 -2.35,0.17l0 35.73c2.57,0 4.54,-0.22 5.87,-0.64 1.34,-0.43 2.6,-1.25 3.8,-2.47 3.35,-3.4 5.01,-9.1 5.01,-17.09 0,-7.81 -1.8,-13.16 -5.4,-16.02 -2.18,-1.73 -5.63,-2.59 -10.36,-2.59l-1.62 0zm-9.41 44.34l-0.52 -0.92 12.67 0c6.25,0 10.98,-0.86 14.22,-2.6 6.95,-3.7 10.43,-10.86 10.43,-21.46 0,-7.1 -1.57,-12.37 -4.69,-15.81l-1.38 -1.53c-0.05,-0.04 -0.19,-0.21 -0.43,-0.48 4.9,3.06 7.35,8.95 7.35,17.64 0,9.13 -2.43,15.84 -7.28,20.17 -3.72,3.32 -9.79,4.99 -18.22,4.99l-12.15 0z"/>
   <path class="fil0" d="M87.92 8.42l-0.55 0.66c-2.35,2.89 -4.22,6.21 -5.62,9.96 -0.22,-0.53 -0.4,-0.92 -0.52,-1.18 -1.26,-2.78 -2.62,-4.58 -4.08,-5.38 -1.45,-0.82 -4.05,-1.22 -7.81,-1.22 -1.74,0 -3.81,0.06 -6.23,0.18l0 15.99 2.13 0 0 -14.16c1.76,-0.15 3.44,-0.24 5.04,-0.24 2.95,0 5.11,0.31 6.51,0.94 1.39,0.62 2.63,1.84 3.72,3.64 -0.33,-0.23 -0.55,-0.4 -0.7,-0.52 -1.88,-1.48 -3.24,-2.37 -4.08,-2.65 -0.82,-0.27 -2.48,-0.41 -4.94,-0.41 -0.74,0 -2.07,0.04 -3.97,0.15l-0.73 0.04 0 13.21 6.42 0 4.5 -6.17 0 14.9 -4.5 -5.75 -9.4 0 0 19.44 2.13 0 0 -17.8 7.55 0 0.91 0.85 -7.61 0 0 16.95c4.73,0 8.1,-0.33 10.09,-1 2,-0.68 3.56,-2 4.7,-3.96l1.84 -3.17c0.07,-0.13 0.22,-0.39 0.43,-0.76 0.59,2.54 1.33,4.58 2.23,6.1 0.89,1.53 2.36,3.31 4.41,5.35l-38.83 0 5.27 -4.01 0 -15.5c-1.94,0.23 -3.69,0.82 -5.27,1.81l-0.48 -0.74c1.41,-0.99 3.32,-1.63 5.75,-1.92l0 -1.64c-0.39,-0.04 -0.68,-0.07 -0.83,-0.07 -2.36,0 -4.51,0.85 -6.45,2.56 1.07,-3.64 3.49,-5.47 7.28,-5.47l0 -14.85 -5.27 -4.16 36.96 0zm1.64 2.44l-0.25 0.3c-2.82,3.79 -4.7,6.97 -5.64,9.53l-0.59 -0.73c1.55,-3.57 3.54,-6.86 5.99,-9.84l0.49 0.74zm-10.21 11.55l0 15.31 -0.85 -0.45 0 -15.31 0.85 0.45zm14.36 30.22l-1.8 3.11 -37.82 0 -0.56 -0.92 37.93 0 1.17 -2.19c-3.32,-3.07 -5.66,-6.35 -7.02,-9.84l1.1 0.42c1.27,2.95 3.41,5.91 6.44,8.87l0.56 0.55z"/>
   <path class="fil0" d="M126.96 8.8c-1.2,1.62 -2.17,3.31 -2.88,5.07 -1.4,3.47 -2.34,5.6 -2.8,6.39l-0.18 0.2c-0.09,-0.25 -0.16,-0.44 -0.21,-0.58 -0.64,-2.07 -1.17,-3.5 -1.6,-4.3 -0.41,-0.81 -1.04,-1.58 -1.86,-2.31 -2.11,-1.86 -4.51,-2.79 -7.19,-2.79 -2.47,0 -4.54,0.68 -6.19,2.06 -1.64,1.37 -2.46,3.09 -2.46,5.16 0,3.88 2.94,6.52 8.79,7.93l5.86 1.41c8.35,2.01 12.52,6.4 12.52,13.19 0,3.78 -1.43,6.95 -4.28,9.53 -2.85,2.56 -6.38,3.85 -10.58,3.85 -2.63,0 -5.58,-0.4 -8.83,-1.19l-4.06 -1c-1.64,-0.39 -2.99,-0.57 -4.05,-0.57 -1.41,0 -2.86,0.43 -4.36,1.32l-0.29 -0.48c2.87,-4.32 4.88,-8.44 6.03,-12.34l0.63 0.18c0.48,3.62 1.94,6.43 4.36,8.44 2.43,2.01 5.59,3.02 9.51,3.02 3.1,0 5.56,-0.72 7.38,-2.15 1.82,-1.44 2.73,-3.36 2.73,-5.79 0,-2.79 -1.27,-5.09 -3.81,-6.91 -1.82,-1.29 -5.57,-2.5 -11.22,-3.61 -4.36,-0.85 -7.52,-2.27 -9.48,-4.26 -1.97,-1.98 -2.95,-4.74 -2.95,-8.27 0,-3.64 1.31,-6.6 3.94,-8.88 2.61,-2.27 6.03,-3.41 10.24,-3.41 2.69,0 5.85,0.49 9.46,1.44 1.68,0.47 2.93,0.69 3.73,0.69 1.14,0 2.38,-0.4 3.72,-1.21l0.38 0.17zm2.15 1.49l-0.32 0.52c-0.95,1.6 -1.75,3.13 -2.43,4.59 -1.6,3.4 -2.53,5.29 -2.73,5.69l-0.17 0.24 -0.83 -0.34 0.14 -0.32c0.66,-1.52 1.63,-3.51 2.91,-5.97l2.35 -4.58 0.18 -0.28 0.9 0.45zm-10.12 6.89c-2.56,-2.72 -5.29,-4.08 -8.22,-4.08 -1.76,0 -3.23,0.51 -4.39,1.53 -1.16,1.02 -1.74,2.32 -1.74,3.89 0,1.71 1.2,3.46 3.57,5.27l0.29 0.18 -0.18 0.27c-3.06,-1.36 -4.6,-3.33 -4.6,-5.92 0,-1.8 0.65,-3.27 1.94,-4.4 1.3,-1.12 2.99,-1.69 5.07,-1.69 1.99,0 3.73,0.42 5.22,1.26 1.5,0.84 2.59,2.03 3.28,3.55l-0.24 0.14zm7.97 13.75c3.14,2.38 4.71,5.64 4.71,9.78 0,4.41 -1.71,8.15 -5.13,11.21 -3.42,3.06 -7.57,4.6 -12.46,4.6 -2.5,0 -4.75,-0.26 -6.76,-0.77l-5.55 -1.37c-1.29,-0.32 -2.67,-0.48 -4.15,-0.48 -1.32,0 -2.53,0.27 -3.64,0.8l-0.41 -1c1.2,-0.58 2.42,-0.87 3.67,-0.87 1.39,0 2.97,0.21 4.76,0.63l5.34 1.3c2.13,0.51 4.36,0.77 6.73,0.77 4.62,0 8.56,-1.48 11.81,-4.42 3.25,-2.95 4.87,-6.51 4.87,-10.68 0,-3.54 -1.26,-6.63 -3.79,-9.28l0 -0.22zm-24.67 9.98c0.85,4.17 3.15,7.11 6.86,8.84l0 0.28c-4.29,-1.25 -6.89,-4.23 -7.79,-8.94l0.93 -0.18zm-4.33 -11.22l1.19 0.65c0.75,1.37 2.98,2.5 6.68,3.4l5.58 1.39c3.78,0.95 6.3,1.76 7.56,2.44 1.26,0.68 2.16,1.71 2.69,3.1l-0.25 0.14c-1.04,-1.2 -2.16,-2.08 -3.37,-2.64 -1.22,-0.54 -3.55,-1.23 -6.99,-2.03 -4.99,-1.16 -8.33,-2.17 -10.04,-3.01 -1.71,-0.84 -2.73,-1.98 -3.05,-3.44z"/>
   <path class="fil0" d="M133.79 8.42l16.41 0 -4.65 6.66 0 50.97 4.37 5.19 -16.13 0 4.81 -5.62 0 -51.07 -4.81 -6.13zm18 2.79l-3.54 4.96 0 49.9 5.82 9.18 -17.96 0 -0.87 -1.3 16.78 0 -4.69 -7.4 0 -50.83 3.86 -5.48 0.6 0.97z"/>
   <path class="fil0" d="M194.61 9.64l-6.48 12.77c-0.41,-3.62 -1.55,-6.37 -3.4,-8.29 -1.86,-1.9 -4.32,-2.86 -7.36,-2.86 -4.34,0 -7.72,1.68 -10.13,5.05 -2.41,3.37 -3.62,8.09 -3.62,14.15 0,13.35 5.48,20.03 16.41,20.03l5.58 0 0 -17.95 -8.73 0c-1.9,0 -3.26,-0.1 -4.07,-0.31 -0.83,-0.2 -1.61,-0.65 -2.38,-1.33l0 -0.85c0.83,0.61 1.67,1.01 2.5,1.2 0.82,0.2 2.18,0.3 4.05,0.3l8.63 0 0 -1.85 -9.63 0 -1.56 0c-3.47,0 -5.19,-1.25 -5.19,-3.76 0,-0.96 0.29,-1.8 0.87,-2.5 0.58,-0.7 1.29,-1.04 2.11,-1.04 0.6,0 1.13,0.22 1.58,0.66 0.46,0.44 0.69,0.96 0.69,1.56 0,1.02 -0.38,1.61 -1.14,1.77l-0.85 0.17c-0.28,0.07 -0.43,0.19 -0.43,0.35 0,0.3 0.39,0.45 1.16,0.45l1.2 0 22.85 0 -4.77 4.67 0 17.04 4.43 3.83 -17.69 0 -3.5 0c-2.93,0 -5.37,-0.35 -7.28,-1.07 -1.92,-0.71 -3.86,-1.99 -5.82,-3.81 -4.65,-4.25 -6.96,-9.93 -6.96,-17.06 0,-7.37 2.19,-13.11 6.58,-17.24 3.83,-3.63 8.38,-5.44 13.65,-5.44 2.35,0 5.06,0.41 8.1,1.23 3.12,0.84 5.17,1.25 6.17,1.25 1.45,0 2.93,-0.38 4.43,-1.12zm2.11 2.18l-5.93 11.64 -0.83 -0.38 5.96 -11.68 0.8 0.42zm-11.08 5.28l-0.63 -0.45c-2.64,-1.84 -5.05,-2.77 -7.22,-2.77 -2.64,0 -4.92,0.94 -6.84,2.81 -1.39,1.38 -2.39,3.19 -3,5.44 -0.62,2.23 -0.92,5.19 -0.92,8.85 0,4.67 0.46,8.23 1.39,10.7 0.94,2.47 2.64,4.7 5.12,6.68l0 0.38c-2.68,-1.6 -4.62,-3.84 -5.8,-6.74 -1.19,-2.9 -1.78,-6.82 -1.78,-11.79 0,-5.47 1.03,-9.73 3.09,-12.77 2.06,-3.04 4.95,-4.55 8.68,-4.55 3.24,0 5.87,1.34 7.91,4l0 0.21zm13.19 12.21l-3.57 3.58 0 16.25 5.75 6.6 -13.73 -0.07 -12.45 0.07c-0.78,0 -1.38,-0.02 -1.8,-0.07 -1.45,-0.15 -2.92,-0.77 -4.4,-1.84l0.74 0c1.57,0.66 3.71,0.99 6.44,0.99l1.73 0 21.53 0 -4.73 -5.3 0 -16.99 3.94 -4.02 0.55 0.8z"/>
   <path class="fil0" d="M243.35 8.42c-2.63,1.36 -4.33,2.61 -5.1,3.75 -1.14,1.76 -1.72,4.41 -1.72,7.95l0 2.25 0 30.53 -5.86 0 -16.35 -31.74 0 18.82 0 1.56 0.38 4.99c0.46,2.31 1.51,4.02 3.16,5.13l0.27 0.24c-3.16,-1.07 -4.73,-4.47 -4.73,-10.23l0 -3.25 0 -18.97 -1.84 -3.64 0 19.97c0,6.34 0.41,10.48 1.24,12.44 0.82,1.98 2.76,3.41 5.81,4.3l3.02 3.22 -18.77 0 -0.55 -0.92 17.34 0 -1.79 -1.92 -16.14 0c2.82,-1.01 4.69,-2.37 5.61,-4.09 0.93,-1.7 1.39,-4.64 1.39,-8.8l0 -27.73 -4.61 -3.86 17.52 0 -4.92 3.3 16.77 32.73 0 -4.16 -14.38 -28.01 4.85 -3.3 0.66 0.66 -4.29 2.91 13.16 25.87 0 -16.19 0 -1.83c0,-4.03 -0.33,-6.72 -0.98,-8.08 -0.67,-1.34 -2.29,-2.65 -4.88,-3.9l15.73 0zm1.22 2.57l-0.63 1.04c-1.78,0.41 -2.99,1.19 -3.62,2.3 -0.64,1.13 -0.96,3.02 -0.96,5.68l0 35.73 -7.43 0 -0.45 -0.92 6.96 0 0 -34.46c0,-3.26 0.43,-5.53 1.27,-6.82 0.84,-1.29 2.46,-2.14 4.86,-2.55z"/>
   <g>
    <path class="fil0" d="M80.76 67.53l-3.61 4.09 5.69 15.13 1.38 -0.77 -5.13 -13.67 3.68 -4.23 0.9 0.38 -3.5 4.07 4.85 12.93c0.28,-0.2 0.45,-0.33 0.48,-0.38l1.15 -0.97c0.7,-0.55 1.13,-0.94 1.31,-1.18 0.6,2.64 1.53,4.99 2.78,7.07 -0.67,-0.03 -1.16,-0.06 -1.46,-0.06 -2.19,0 -3.8,0.35 -4.81,1.03l6.27 17.02 5.19 4.02 -17.49 0 4.78 -4.02 -3.84 -10.12c-2.55,2.56 -4.5,5 -5.86,7.31l-0.8 -0.21c1.37,-2.26 3.39,-4.79 6.1,-7.59l0.27 -0.34 -0.65 -1.53c-2.75,2.3 -5.02,4.94 -6.82,7.97l-0.63 -1c-1.2,-1.92 -2.74,-4.11 -4.61,-6.55l-0.34 -0.42c-1.83,3.95 -2.74,7.17 -2.74,9.64 0,1.45 0.24,2.68 0.75,3.69 0.5,1 1.72,2.68 3.64,5.03 0.16,0.22 0.42,0.54 0.77,0.97l-18.7 0 -0.7 -0.92 17.64 0 -0.6 -0.73c-1.53,-1.85 -2.53,-3.29 -3.02,-4.32 -0.47,-1.03 -0.71,-2.23 -0.71,-3.61 0,-2.36 0.97,-5.87 2.9,-10.54l-1.51 -1.6c-0.31,0.74 -0.69,1.82 -1.15,3.26l-1.15 3.53c-0.62,1.89 -0.93,3.47 -0.93,4.72 0,1.29 0.22,2.36 0.66,3.21 0.44,0.87 1.36,2.03 2.77,3.5 0.14,0.15 0.34,0.37 0.62,0.67l-17.32 0c3.3,-1.72 5.93,-4.01 7.85,-6.9 1.93,-2.88 3.83,-7.34 5.73,-13.37l0.14 -0.48c-1.22,-1.04 -2.99,-1.68 -5.3,-1.92 1.27,-1.89 2.25,-3.87 2.95,-5.92 0.31,0.3 0.52,0.48 0.59,0.55l1.56 1.46c0.52,0.51 1.16,1.03 1.9,1.56l0.62 -1.53 -0.42 -0.34c-1.14,-1.02 -2.11,-1.83 -2.91,-2.46l-0.3 -0.25 0.55 -0.76c1.22,0.81 2.4,1.74 3.54,2.81l4.7 -12.97 -3.67 -3.96 15.97 0zm-8.56 11.13l-3.81 10.07c0.21,0.22 0.32,0.36 0.34,0.41l1.44 1.6c0.75,0.82 1.72,2.11 2.9,3.87l0.35 0.52c0.99,-1.25 2.17,-2.48 3.53,-3.71l-4.75 -12.76zm-1.55 -4.02l-5.51 14.57c1.75,1.8 3.26,3.58 4.54,5.33l1.59 2.23c0.02,0.02 0.14,0.16 0.35,0.45 0.2,-0.22 0.32,-0.35 0.34,-0.4l0.49 -0.57c0.07,-0.1 0.2,-0.25 0.38,-0.45 -1.62,-2.5 -3.5,-4.76 -5.64,-6.77l4.43 -11.71 -0.97 -2.68zm20.36 9.96c0.51,2.08 1.79,4.93 3.81,8.56 -0.5,-0.07 -0.79,-0.11 -0.86,-0.11l-2.81 -0.23c-1.26,-0.12 -2.2,-0.18 -2.76,-0.18 -0.1,0 -0.33,0.01 -0.7,0.03l5.78 15.36 7.73 6.81 -20.06 0 -0.65 -0.92 18.38 0 -6.23 -5.51 -6.17 -16.33c0.79,-0.2 1.69,-0.29 2.71,-0.29 1.24,0 2.64,0.09 4.16,0.29l-0.43 -0.75c-1.47,-2.73 -2.47,-5.19 -2.97,-7.39l1.07 0.66z"/>
    <path class="fil0" d="M141.13 67.53l-13.58 0c-6.67,0 -11.6,1.27 -14.81,3.84 -4.77,3.79 -7.16,9.73 -7.16,17.83 0,8.38 2.08,14.45 6.25,18.2 1.89,1.69 4.01,2.87 6.35,3.57 2.34,0.69 5.45,1.04 9.33,1.04l14.66 0 -4.74 -3.67 0 -36.77 3.7 -4.04zm-10.51 2.97l0 38.81 -1.84 0 0 -36.52c-1.2,-0.2 -2.3,-0.3 -3.29,-0.3 -1.89,0 -3.38,0.19 -4.48,0.58 -1.1,0.38 -2.2,1.08 -3.3,2.09 2.45,-1.17 5.06,-1.75 7.86,-1.75 0.61,0 1.39,0.06 2.36,0.17l0 35.73c-2.58,0 -4.55,-0.21 -5.88,-0.64 -1.34,-0.42 -2.6,-1.25 -3.8,-2.47 -3.34,-3.39 -5.01,-9.09 -5.01,-17.08 0,-7.82 1.8,-13.16 5.4,-16.03 2.18,-1.72 5.63,-2.59 10.36,-2.59l1.62 0zm9.41 44.34l0.52 -0.92 -12.67 0c-6.25,0 -10.97,-0.86 -14.21,-2.6 -6.96,-3.7 -10.43,-10.85 -10.43,-21.46 0,-7.09 1.56,-12.37 4.68,-15.81l1.38 -1.52c0.05,-0.05 0.19,-0.22 0.43,-0.49 -4.9,3.06 -7.34,8.95 -7.34,17.64 0,9.13 2.42,15.85 7.27,20.17 3.72,3.33 9.79,4.99 18.22,4.99l12.15 0z"/>
    <path class="fil0" d="M146.28 67.53l13.58 0c6.67,0 11.6,1.27 14.8,3.84 4.78,3.79 7.17,9.73 7.17,17.83 0,8.38 -2.08,14.45 -6.25,18.2 -1.9,1.69 -4.01,2.87 -6.35,3.57 -2.35,0.69 -5.46,1.04 -9.33,1.04l-14.66 0 4.74 -3.67 0 -36.77 -3.7 -4.04zm10.51 2.97l0 38.81 1.84 0 0 -36.52c1.2,-0.2 2.3,-0.3 3.29,-0.3 1.89,0 3.38,0.19 4.48,0.58 1.1,0.38 2.2,1.08 3.3,2.09 -2.45,-1.17 -5.06,-1.75 -7.86,-1.75 -0.61,0 -1.39,0.06 -2.36,0.17l0 35.73c2.58,0 4.54,-0.21 5.88,-0.64 1.34,-0.42 2.6,-1.25 3.79,-2.47 3.35,-3.39 5.02,-9.09 5.02,-17.08 0,-7.82 -1.8,-13.16 -5.41,-16.03 -2.17,-1.72 -5.62,-2.59 -10.35,-2.59l-1.62 0zm-9.41 44.34l-0.52 -0.92 12.67 0c6.24,0 10.97,-0.86 14.21,-2.6 6.95,-3.7 10.43,-10.85 10.43,-21.46 0,-7.09 -1.56,-12.37 -4.68,-15.81l-1.38 -1.52c-0.05,-0.05 -0.19,-0.22 -0.43,-0.49 4.89,3.06 7.34,8.95 7.34,17.64 0,9.13 -2.42,15.85 -7.27,20.17 -3.72,3.33 -9.79,4.99 -18.22,4.99l-12.15 0z"/>
    <path class="fil0" d="M220.15 67.53l-3.61 4.09 5.69 15.13 1.39 -0.77 -5.14 -13.67 3.68 -4.23 0.9 0.38 -3.5 4.07 4.85 12.93c0.28,-0.2 0.45,-0.33 0.48,-0.38l1.15 -0.97c0.7,-0.55 1.13,-0.94 1.31,-1.18 0.6,2.64 1.53,4.99 2.78,7.07 -0.67,-0.03 -1.16,-0.06 -1.45,-0.06 -2.2,0 -3.81,0.35 -4.82,1.03l6.27 17.02 5.19 4.02 -17.49 0 4.78 -4.02 -3.84 -10.12c-2.54,2.56 -4.5,5 -5.86,7.31l-0.8 -0.21c1.37,-2.26 3.39,-4.79 6.1,-7.59l0.27 -0.34 -0.65 -1.53c-2.75,2.3 -5.02,4.94 -6.82,7.97l-0.63 -1c-1.2,-1.92 -2.74,-4.11 -4.61,-6.55l-0.34 -0.42c-1.83,3.95 -2.74,7.17 -2.74,9.64 0,1.45 0.25,2.68 0.75,3.69 0.5,1 1.72,2.68 3.65,5.03 0.15,0.22 0.41,0.54 0.76,0.97l-18.7 0 -0.7 -0.92 17.64 0 -0.6 -0.73c-1.53,-1.85 -2.53,-3.29 -3.02,-4.32 -0.47,-1.03 -0.71,-2.23 -0.71,-3.61 0,-2.36 0.97,-5.87 2.9,-10.54l-1.51 -1.6c-0.31,0.74 -0.69,1.82 -1.15,3.26l-1.15 3.53c-0.62,1.89 -0.93,3.47 -0.93,4.72 0,1.29 0.23,2.36 0.66,3.21 0.44,0.87 1.36,2.03 2.77,3.5 0.14,0.15 0.34,0.37 0.63,0.67l-17.33 0c3.3,-1.72 5.93,-4.01 7.86,-6.9 1.92,-2.88 3.83,-7.34 5.72,-13.37l0.14 -0.48c-1.22,-1.04 -2.99,-1.68 -5.3,-1.92 1.27,-1.89 2.25,-3.87 2.95,-5.92 0.32,0.3 0.52,0.48 0.59,0.55l1.56 1.46c0.52,0.51 1.16,1.03 1.9,1.56l0.62 -1.53 -0.42 -0.34c-1.14,-1.02 -2.11,-1.83 -2.91,-2.46l-0.3 -0.25 0.55 -0.76c1.22,0.81 2.4,1.74 3.54,2.81l4.7 -12.97 -3.67 -3.96 15.97 0zm-8.56 11.13l-3.81 10.07c0.22,0.22 0.32,0.36 0.35,0.41l1.43 1.6c0.75,0.82 1.72,2.11 2.91,3.87l0.34 0.52c0.99,-1.25 2.17,-2.48 3.53,-3.71l-4.75 -12.76zm-1.55 -4.02l-5.51 14.57c1.75,1.8 3.27,3.58 4.54,5.33l1.59 2.23c0.02,0.02 0.14,0.16 0.35,0.45 0.2,-0.22 0.32,-0.35 0.34,-0.4l0.49 -0.57c0.07,-0.1 0.2,-0.25 0.38,-0.45 -1.62,-2.5 -3.5,-4.76 -5.64,-6.77l4.43 -11.71 -0.97 -2.68zm20.36 9.96c0.51,2.08 1.79,4.93 3.81,8.56 -0.5,-0.07 -0.79,-0.11 -0.86,-0.11l-2.81 -0.23c-1.26,-0.12 -2.2,-0.18 -2.76,-0.18 -0.1,0 -0.33,0.01 -0.7,0.03l5.78 15.36 7.73 6.81 -20.06 0 -0.65 -0.92 18.39 0 -6.24 -5.51 -6.17 -16.33c0.79,-0.2 1.69,-0.29 2.71,-0.29 1.24,0 2.64,0.09 4.16,0.29l-0.42 -0.75c-1.48,-2.73 -2.48,-5.19 -2.98,-7.39l1.07 0.66z"/>
   </g>
  </g>
 </g>
</svg>
